# xmcd
#
# Track frame offsets:
#	150
#	18045
#	33573
#	50415
#	67680
#	84615
#	100437
#	117629
#	133971
#	151571
#	169815
#
# Disc length: 2450 seconds
#
# Revision: 1401615063
# Processed by: cddbd v1.5.2PL0 Copyright (c) Steve Scherf et al.
# Submitted via: EZCDAudioConverter 3.1.5.1
#
DISCID=8909900b
DTITLE=Αντώνης Ρέμος - Κλειστά τα στόματα
DYEAR=2011
DGENRE=
TTITLE0=Η νύχτα δυο κομμάτια
TTITLE1=Κομμένα πια τα δανεικά (Meme pas fatigue)
TTITLE2=Φεγγάρια χάρτινα
TTITLE3=Δεν κατάφερα
TTITLE4=Τώρα ελπίζω
TTITLE5=Είναι στιγμές
TTITLE6=Κάνε να φύγεις
TTITLE7=Κλειστά τα στόματα
TTITLE8=Παρελθόν
TTITLE9=Όταν είσαι εδώ
TTITLE10=Χρόνια πολλά
EXTD=
EXTT0=
EXTT1=
EXTT2=
EXTT3=
EXTT4=
EXTT5=
EXTT6=
EXTT7=
EXTT8=
EXTT9=
EXTT10=
PLAYORDER=
